<svg width="17" height="17" viewBox="0 0 17 17" fill="none" xmlns="http://www.w3.org/2000/svg">
<g clip-path="url(#clip0_346_14324)">
<path d="M14.0071 2.0072L11.9818 2.01449C11.0637 0.810913 9.62713 0.0229554 7.99995 0.0288139C6.37277 0.0346725 4.94189 0.832954 4.03249 2.04311L2.00719 2.0504C0.904382 2.05437 0.0104311 2.95479 0.0144016 4.05759L0.0504057 14.0575C0.0543763 15.1603 0.954788 16.0543 2.05759 16.0503L14.0575 16.0071C15.1603 16.0031 16.0543 15.1027 16.0503 13.9999L16.0143 3.99998C16.0103 2.89718 15.1099 2.00323 14.0071 2.0072ZM8.00355 1.02881C10.2126 1.02085 12.01 2.80533 12.0179 5.01438C12.0259 7.22343 10.2414 9.0208 8.03235 9.02876C5.8233 9.03671 4.02593 7.25223 4.01798 5.04318C4.01002 2.83413 5.7945 1.03676 8.00355 1.02881ZM15.0503 14.0035C15.0523 14.5557 14.6061 15.0051 14.0539 15.0071L2.05399 15.0503C1.50181 15.0523 1.05239 14.6061 1.0504 14.0539L1.0144 4.05399C1.01241 3.50181 1.4586 3.05238 2.01079 3.0504L3.43453 3.04527C3.16736 3.65967 3.01542 4.33491 3.01798 5.04678C3.02791 7.80364 5.27909 10.0387 8.03595 10.0287C10.7928 10.0188 13.0278 7.76764 13.0179 5.01078C13.0154 4.29891 12.8586 3.62478 12.587 3.01232L14.0107 3.00719C14.5629 3.0052 15.0123 3.4514 15.0143 4.00359L15.0503 14.0035ZM8.02875 8.02876C8.85593 8.02578 9.52632 7.35055 9.52334 6.52337C9.52177 6.08837 9.33131 5.70031 9.03377 5.42731L9.97082 3.21861C10.0787 2.96479 9.9601 2.67115 9.70565 2.56331C9.45276 2.45547 9.15818 2.57372 9.05035 2.82849L8.11267 5.03813C7.00429 4.96993 6.52118 5.92949 6.52336 6.53417C6.52634 7.36135 7.20157 8.03174 8.02875 8.02876ZM8.02155 6.02877C8.2978 6.02778 8.52235 6.25072 8.52335 6.52697C8.52434 6.80322 8.3014 7.02777 8.02515 7.02877C7.7489 7.02976 7.52435 6.80682 7.52335 6.53057C7.52236 6.25432 7.7453 6.02977 8.02155 6.02877Z" fill="#212121"/>
</g>
<defs>
<clipPath id="clip0_346_14324">
<rect width="16" height="16" fill="white" transform="translate(0 0.0576172) rotate(-0.206289)"/>
</clipPath>
</defs>
</svg>
