<svg width="9" height="17" viewBox="0 0 9 17" fill="none" xmlns="http://www.w3.org/2000/svg">
<g clip-path="url(#clip0_346_14586)">
<path d="M6.99995 0.00360574L0.999994 0.0252082C0.44781 0.0271963 0.00161231 0.476618 0.00360041 1.0288L0.0540061 15.0287C0.0559942 15.5809 0.505416 16.0271 1.0576 16.0251L7.05756 16.0035C7.60974 16.0015 8.05594 15.5521 8.05395 14.9999L8.00355 0.999999C8.00156 0.447815 7.55214 0.00161764 6.99995 0.00360574ZM1.054 15.0251L1.00359 1.0252L7.00355 1.0036L7.01076 3.00359L5.26077 3.00989C5.12264 3.01038 5.01117 3.12266 5.01167 3.26079L5.01347 3.76078C5.01397 3.89891 5.12624 4.01038 5.26437 4.00988L7.01436 4.00358L7.02156 6.00357L5.27157 6.00987C5.13344 6.01036 5.02197 6.12264 5.02247 6.26077L5.02427 6.76076C5.02477 6.89889 5.13704 7.01036 5.27517 7.00986L7.02516 7.00356L7.03236 9.00355L5.28237 9.00985C5.14425 9.01035 5.03277 9.12262 5.03327 9.26075L5.03507 9.76074C5.03557 9.89887 5.14785 10.0103 5.28597 10.0098L7.03596 10.0035L7.04316 12.0035L5.29317 12.0098C5.15505 12.0103 5.04358 12.1226 5.04407 12.2607L5.04587 12.7607C5.04637 12.8988 5.15865 13.0103 5.29677 13.0098L7.04676 13.0035L7.05396 15.0035L1.054 15.0251Z" fill="#212121"/>
</g>
<defs>
<clipPath id="clip0_346_14586">
<rect width="8" height="16" fill="white" transform="translate(0 0.0288086) rotate(-0.206289)"/>
</clipPath>
</defs>
</svg>
